<?xml version="1.0" encoding="UTF-8"?> <svg xmlns="http://www.w3.org/2000/svg" xmlns:xlink="http://www.w3.org/1999/xlink" width="357px" height="357px" viewBox="0 0 357 357" version="1.1"><title>logo</title><defs><linearGradient x1="89.1788097%" y1="20.136966%" x2="10.9638343%" y2="100%" id="linearGradient-1"><stop stop-color="#FF3B30" offset="0%"></stop><stop stop-color="#007AFF" offset="100%"></stop></linearGradient><linearGradient x1="80.2846376%" y1="20.136966%" x2="19.8256241%" y2="100%" id="linearGradient-2"><stop stop-color="#FF3B30" offset="0%"></stop><stop stop-color="#007AFF" offset="100%"></stop></linearGradient><linearGradient x1="89.1788097%" y1="26.3873305%" x2="10.9638343%" y2="89.5349473%" id="linearGradient-3"><stop stop-color="#FF3B30" offset="0%"></stop><stop stop-color="#007AFF" offset="100%"></stop></linearGradient></defs><g id="logo" stroke="none" stroke-width="1" fill="none" fill-rule="evenodd"><g id="home-assistant-logo" transform="translate(-72.000000, -72.000000)"><g id="logo" transform="translate(72.000000, 72.000000)"><path d="M178.5,0 C79.9171722,0 0,79.9171722 0,178.5 C0,277.082828 79.9171722,357 178.5,357 C277.082828,357 357,277.082828 357,178.5 C357,79.9171722 277.082828,0 178.5,0 Z M178.5,7 C273.216835,7 350,83.7831654 350,178.5 C350,273.216835 273.216835,350 178.5,350 C83.7831654,350 7,273.216835 7,178.5 C7,83.7831654 83.7831654,7 178.5,7 Z" id="Oval" fill="url(#linearGradient-1)" fill-rule="nonzero"></path><g id="home" transform="translate(43.000000, 41.000000)"><path d="M153.470671,65.9066819 C158.852021,65.9066819 163.214171,70.2844319 163.214171,75.6846319 C163.214171,81.0854819 158.852021,85.4632319 153.470671,85.4632319 C152.016761,85.4652035 150.581097,85.139502 149.270371,84.5103319 L149.270371,84.5103319 L135.933021,97.8951319 L135.933021,193.628432 L152.171971,177.330982 L152.171971,157.916782 C148.387671,156.574532 145.675871,152.952732 145.675871,148.695232 C145.675871,143.295032 150.038671,138.916632 155.419371,138.916632 C160.800721,138.916632 165.162871,143.295032 165.162871,148.695232 C165.16696,152.833799 162.565624,156.5269 158.667421,157.916782 L158.667421,157.916782 L158.667421,170.812782 L176.205071,153.212082 L176.205071,139.615382 L162.218371,125.577982 C160.946321,126.188982 159.522171,126.531532 158.018071,126.531532 C152.636721,126.531532 148.274571,122.153132 148.274571,116.752932 C148.274571,111.352732 152.636721,106.974982 158.017421,106.974982 C163.398771,106.974982 167.760271,111.352732 167.760271,116.752932 C167.762629,118.211455 167.438363,119.651998 166.811271,120.968832 L166.811271,120.968832 L176.204421,130.395782 L176.204421,100.551032 C172.420121,99.2087819 169.708321,95.5869819 169.708321,91.3294819 C169.708321,85.9286319 174.071121,81.5508819 179.451821,81.5508819 C184.833171,81.5508819 189.195321,85.9286319 189.195321,91.3294819 C189.19941,95.4680491 186.598074,99.1611502 182.699871,100.551032 L182.699871,100.551032 L182.699871,130.397082 L192.093021,120.969482 C191.484621,119.692882 191.143371,118.263532 191.143371,116.753582 C191.143371,111.353382 195.506171,106.975632 200.886871,106.975632 C206.267571,106.975632 210.630371,111.353382 210.630371,116.753582 C210.630371,122.153782 206.267571,126.532182 200.886871,126.532182 C199.432692,126.534048 197.996793,126.208122 196.685921,125.578632 L196.685921,125.578632 L182.699871,139.616032 L182.699871,155.912832 L163.259671,175.423232 L190.400421,175.423232 C191.738121,171.624632 195.346921,168.903732 199.588821,168.903732 C204.970171,168.903732 209.332321,173.281482 209.332321,178.682332 C209.332321,184.082532 204.970171,188.460282 199.588821,188.460282 C195.346921,188.460282 191.738121,185.739382 190.400421,181.941432 L190.400421,181.941432 L156.765521,181.941432 L135.933671,202.848032 L135.933671,224.266182 L153.425171,206.712282 L173.511471,206.712282 C174.849171,202.914332 178.457971,200.193432 182.700521,200.193432 C188.081221,200.193432 192.444021,204.571182 192.444021,209.971382 C192.444021,215.371582 188.081221,219.749332 182.700521,219.749332 C178.457971,219.749332 174.849171,217.028432 173.511471,213.231132 L173.511471,213.231132 L156.115521,213.231132 L137.278521,232.135082 L128.092721,232.135082 L109.905721,213.882432 L91.8597711,213.882432 C90.5220711,217.680382 86.9132711,220.401282 82.6707211,220.401282 C77.2900211,220.401282 72.9272211,216.023532 72.9272211,210.623332 C72.9272211,205.223132 77.2900211,200.844732 82.6707211,200.844732 C86.9132711,200.844732 90.5220711,203.566282 91.8597711,207.364232 L91.8597711,207.364232 L103.410271,207.364232 L81.6749211,185.550882 C80.4035211,186.161882 78.9787211,186.503782 77.4746211,186.503782 C72.0932711,186.503782 67.7311211,182.126032 67.7311211,176.725832 C67.7311211,171.325632 72.0932711,166.947882 77.4739711,166.947882 C82.8559711,166.947882 87.2174711,171.325632 87.2174711,176.725832 C87.219626,178.184405 86.895137,179.62495 86.2678211,180.941732 L86.2678211,180.941732 L108.003171,202.754432 L108.003171,190.510382 C104.218871,189.168132 101.507071,185.546332 101.507071,181.288832 C101.507071,175.888632 105.869871,171.510882 111.250571,171.510882 C116.631921,171.510882 120.994071,175.888632 120.994071,181.288832 C120.99816,185.427399 118.396824,189.1205 114.498621,190.510382 L114.498621,190.510382 L114.498621,209.273282 L129.437571,224.266182 L129.437571,175.468082 L101.461571,147.390682 L83.4156211,147.390682 C82.0785711,151.189282 78.4691211,153.910182 74.2265711,153.910182 C68.8458711,153.910182 64.4830711,149.532432 64.4830711,144.131582 C64.4830711,138.731382 68.8458711,134.353632 74.2265711,134.353632 C78.4691211,134.353632 82.0779211,137.074532 83.4156211,140.872482 L83.4156211,140.872482 L94.9661211,140.872482 L74.8765711,120.710782 L74.8765711,99.8997319 C71.0922711,98.5574819 68.3804711,94.9356819 68.3804711,90.6781819 C68.3804711,85.2779819 72.7432711,80.8995819 78.1239711,80.8995819 C83.5053211,80.8995819 87.8674711,85.2779819 87.8674711,90.6781819 C87.8715602,94.8167491 85.2702238,98.5098502 81.3720211,99.8997319 L81.3720211,99.8997319 L81.3720211,118.010682 L99.5590211,136.263332 L99.5590211,124.019282 C95.7747211,122.677032 93.0629211,119.055232 93.0629211,114.797732 C93.0629211,109.396882 97.4257211,105.019132 102.806421,105.019132 C108.187771,105.019132 112.549921,109.396882 112.549921,114.797732 C112.55401,118.936299 109.952674,122.6294 106.054471,124.019282 L106.054471,124.019282 L106.054471,142.781532 L129.437571,166.249132 L129.437571,97.8951319 L116.100871,84.5103319 C114.828821,85.1206819 113.404671,85.4632319 111.900571,85.4632319 C106.519221,85.4632319 102.157071,81.0854819 102.157071,75.6846319 C102.157071,70.2844319 106.519221,65.9066819 111.899921,65.9066819 C117.281271,65.9066819 121.642771,70.2844319 121.642771,75.6846319 C121.645129,77.1431554 121.320863,78.5836976 120.693771,79.9005319 L120.693771,79.9005319 L132.685621,91.9352819 L144.676821,79.9005319 C144.068421,78.6239319 143.727821,77.1945819 143.727821,75.6846319 C143.727821,70.2844319 148.089971,65.9066819 153.470671,65.9066819 Z M82.6707211,206.712282 C80.5185711,206.712282 78.7733211,208.463382 78.7733211,210.623332 C78.7733211,212.783282 80.5185711,214.534382 82.6707211,214.534382 C84.8235211,214.534382 86.5681211,212.783282 86.5681211,210.623332 C86.5681211,208.463382 84.8235211,206.712282 82.6707211,206.712282 Z M182.700521,206.060332 C180.547721,206.060332 178.803121,207.811432 178.803121,209.971382 C178.803121,212.131332 180.547721,213.882432 182.700521,213.882432 C184.852671,213.882432 186.597921,212.131332 186.597921,209.971382 C186.597921,207.811432 184.852671,206.060332 182.700521,206.060332 Z M111.250571,177.377782 C109.098421,177.377782 107.353171,179.128882 107.353171,181.288832 C107.353171,183.448782 109.098421,185.199882 111.251221,185.199882 L111.251221,185.199882 L111.451159,185.194793 C113.510705,185.090039 115.147971,183.381283 115.147971,181.288832 C115.147971,179.128882 113.403371,177.377782 111.250571,177.377782 Z M199.588171,174.769982 C197.436021,174.769982 195.691421,176.521082 195.691421,178.681682 C195.691421,180.841632 197.436671,182.592732 199.588171,182.592732 C201.740971,182.592732 203.485571,180.841632 203.485571,178.681682 C203.485571,176.521082 201.740971,174.769982 199.588171,174.769982 Z M77.4746211,172.814782 C75.3218211,172.814782 73.5772211,174.565882 73.5772211,176.725832 C73.5772211,178.885782 75.3218211,180.636882 77.4746211,180.636882 C79.6267711,180.636882 81.3720211,178.885782 81.3720211,176.725832 C81.3720211,174.565882 79.6267711,172.814782 77.4746211,172.814782 Z M155.419371,144.783532 C153.267221,144.783532 151.522621,146.534632 151.522621,148.695232 C151.522621,150.855182 153.267221,152.606282 155.419371,152.606282 C157.572171,152.606282 159.316771,150.855182 159.316771,148.695232 C159.316771,146.534632 157.572171,144.783532 155.419371,144.783532 Z M74.2265711,140.220532 C72.0744211,140.220532 70.3298211,141.971632 70.3298211,144.131582 C70.3298211,146.292182 72.0744211,148.043282 74.2265711,148.043282 C76.3793711,148.043282 78.1239711,146.292182 78.1239711,144.131582 C78.1239711,141.971632 76.3793711,140.220532 74.2265711,140.220532 Z M158.017421,112.841882 C155.865271,112.841882 154.120671,114.592982 154.120671,116.752932 C154.120671,118.912882 155.865921,120.664632 158.017421,120.664632 C160.170221,120.664632 161.914821,118.912882 161.914821,116.752932 C161.914821,114.592982 160.170221,112.841882 158.017421,112.841882 Z M200.887521,112.841882 C198.735371,112.841882 196.990121,114.592982 196.990121,116.752932 C196.990121,118.912882 198.735371,120.664632 200.887521,120.664632 C203.039671,120.664632 204.784921,118.912882 204.784921,116.752932 C204.784921,114.592982 203.039671,112.841882 200.887521,112.841882 Z M102.806421,110.886032 C100.654271,110.886032 98.9096711,112.637132 98.9096711,114.797732 C98.9096711,116.957682 100.654271,118.708782 102.806421,118.708782 C104.959221,118.708782 106.703821,116.957682 106.703821,114.797732 C106.703821,112.637132 104.959221,110.886032 102.806421,110.886032 Z M179.452471,87.4184319 C177.300321,87.4184319 175.555071,89.1695319 175.555071,91.3301319 C175.555071,93.4900819 177.300321,95.2411819 179.452471,95.2411819 C181.605271,95.2411819 183.349871,93.4900819 183.349871,91.3301319 C183.349871,89.1695319 181.605271,87.4184319 179.452471,87.4184319 Z M78.1239711,86.7664819 C75.9718211,86.7664819 74.2265711,88.5175819 74.2265711,90.6781819 C74.2265711,92.8381319 75.9718211,94.5892319 78.1239711,94.5892319 C80.2761211,94.5892319 82.0213711,92.8381319 82.0213711,90.6781819 C82.0213711,88.5175819 80.2761211,86.7664819 78.1239711,86.7664819 Z M153.470671,71.7735819 C151.318521,71.7735819 149.573921,73.5246819 149.573921,75.6846319 C149.573921,77.8452319 151.318521,79.5956819 153.470671,79.5956819 L153.470671,79.5956819 C155.623471,79.5963319 157.368071,77.8452319 157.368071,75.6846319 C157.368071,73.5246819 155.623471,71.7735819 153.470671,71.7735819 Z M111.899921,71.7735819 C109.747771,71.7735819 108.003171,73.5246819 108.003171,75.6846319 C108.003171,77.8452319 109.748421,79.5956819 111.899921,79.5956819 L111.899921,79.5956819 C114.052721,79.5963319 115.797321,77.8452319 115.797321,75.6846319 C115.797321,73.5246819 114.052721,71.7735819 111.899921,71.7735819 Z" id="Combined-Shape" fill="url(#linearGradient-2)"></path><path d="M124.745341,3.76012879 L3.19135453,127.394767 C0.467945288,130.164951 -0.326972777,134.298844 1.17479027,137.881412 L1.26192435,138.082856 C2.80895551,141.551128 6.25492508,143.795378 10.0662268,143.795532 L29.08025,143.7955 L29.0808211,227.087832 C29.0808211,231.854436 32.9449171,235.718532 37.7115211,235.718532 L227.659721,235.718532 L227.860582,235.718532 C232.534406,235.609505 236.290421,231.787301 236.290421,227.087832 L236.28985,143.7955 L255.391321,143.795532 C259.268924,143.796015 262.769814,141.472949 264.27631,137.899473 L264.363957,137.684414 C265.750789,134.161407 264.947497,130.1422 262.293712,127.421699 L236.28985,100.7603 L236.290421,58.5766319 C236.290421,56.2874357 235.380966,54.0920152 233.762155,52.4734131 C232.143345,50.8548109 229.947808,49.9456376 227.658611,49.9459319 L206.592571,49.9459319 C204.303567,49.9459319 202.108315,50.8552351 200.489745,52.4738054 L200.31905,52.6494083 C198.807384,54.2492989 197.961871,56.369378 197.961871,58.5766319 L197.9613,61.76355 L140.639437,3.74107723 L140.524397,3.62612929 C136.129812,-0.693857781 129.06564,-0.633816458 124.745341,3.76012879 Z M135.39187,8.61158688 L135.5002,8.7138 L205.111871,79.1751865 L205.111871,58.5766319 C205.111871,58.1839258 205.267873,57.807304 205.545558,57.5296189 C205.823243,57.2519337 206.199865,57.0959319 206.592571,57.0959319 L227.659071,57.0959319 C228.05227,57.0958813 228.428941,57.2518609 228.706667,57.5295515 C228.984393,57.8072421 229.140421,58.1838928 229.140421,58.5766318 L229.140421,103.671094 L257.175384,132.414215 C257.875291,133.131717 258.077148,134.198507 257.687854,135.12193 C257.29856,136.045352 256.393894,136.645657 255.391766,136.645532 L229.140421,136.645532 L229.140421,227.087832 C229.140421,227.9056 228.477489,228.568532 227.659721,228.568532 L37.7115211,228.568532 C36.8937531,228.568532 36.2308211,227.9056 36.2308211,227.087832 L36.2308211,136.645532 L10.0663711,136.645532 C9.06269581,136.645491 8.15694768,136.043035 7.76887664,135.117262 C7.3808056,134.19149 7.58622061,133.123249 8.28995915,132.407424 L129.843788,8.77294675 C131.35685,7.23409162 133.807011,7.17511681 135.39187,8.61158688 Z" id="a-path" fill="url(#linearGradient-3)" fill-rule="nonzero"></path></g></g></g></g></svg> 